<svg width="176" height="96" viewBox="0 0 176 96" fill="none" xmlns="http://www.w3.org/2000/svg">
<path d="M0.484375 -8.54517L144 -47L156.299 -1.0971C166.918 38.5336 143.4 79.269 103.769 89.888C64.1384 100.507 23.403 76.9884 12.784 37.3577L0.484375 -8.54517Z" fill="#68B984"/>
<path d="M49.128 47H37.848V29.24H49.128V32.84H41.736V36.32H48.288V39.728H41.736V43.4H49.128V47ZM55.5489 47H51.8529V35H55.3089L55.5489 36.248C56.1489 35.408 57.3249 34.616 59.0529 34.616C60.8529 34.616 62.0049 35.456 62.7009 36.728C63.3249 35.456 64.7409 34.616 66.4689 34.616C69.5649 34.616 71.1009 36.416 71.1009 39.152V47H67.4049V40.184C67.4049 38.672 66.6129 37.952 65.4369 37.952C64.3809 37.952 63.3249 38.528 63.3249 40.568V47H59.6289V40.184C59.6289 38.696 58.8609 37.976 57.6849 37.976C56.6289 37.976 55.5489 38.552 55.5489 40.568V47ZM75.5676 33.128C74.3916 33.128 73.4556 32.192 73.4556 31.016C73.4556 29.84 74.3916 28.928 75.5676 28.928C76.7196 28.928 77.6556 29.84 77.6556 31.016C77.6556 32.192 76.7196 33.128 75.5676 33.128ZM73.7436 47V35H77.4396V47H73.7436ZM79.3483 43.208H82.8523C82.9003 44.048 83.5243 44.552 84.6523 44.552C85.8043 44.552 86.3323 44.144 86.3323 43.52C86.3323 43.16 86.1403 42.776 85.2523 42.584L83.0443 42.104C80.8363 41.624 79.7563 40.664 79.7563 38.552C79.7563 36.056 81.8923 34.616 84.7723 34.616C87.5563 34.616 89.5003 36.248 89.5003 38.672H85.9963C85.9963 37.856 85.4923 37.304 84.6043 37.304C83.7643 37.304 83.2363 37.736 83.2363 38.384C83.2363 38.936 83.6923 39.248 84.5323 39.44L86.7643 39.92C88.7323 40.352 89.8123 41.264 89.8123 43.184C89.8123 45.752 87.6283 47.312 84.5083 47.312C81.3403 47.312 79.3483 45.632 79.3483 43.208ZM90.8796 43.208H94.3836C94.4316 44.048 95.0556 44.552 96.1836 44.552C97.3356 44.552 97.8636 44.144 97.8636 43.52C97.8636 43.16 97.6716 42.776 96.7836 42.584L94.5756 42.104C92.3676 41.624 91.2876 40.664 91.2876 38.552C91.2876 36.056 93.4236 34.616 96.3036 34.616C99.0876 34.616 101.032 36.248 101.032 38.672H97.5276C97.5276 37.856 97.0236 37.304 96.1356 37.304C95.2956 37.304 94.7676 37.736 94.7676 38.384C94.7676 38.936 95.2236 39.248 96.0636 39.44L98.2956 39.92C100.264 40.352 101.344 41.264 101.344 43.184C101.344 45.752 99.1596 47.312 96.0396 47.312C92.8716 47.312 90.8796 45.632 90.8796 43.208ZM105.099 33.128C103.923 33.128 102.987 32.192 102.987 31.016C102.987 29.84 103.923 28.928 105.099 28.928C106.251 28.928 107.187 29.84 107.187 31.016C107.187 32.192 106.251 33.128 105.099 33.128ZM103.275 47V35H106.971V47H103.275ZM109.144 40.784C109.144 37.136 111.52 34.592 114.904 34.592C116.536 34.592 117.832 35.216 118.48 36.2L118.672 35H122.152V46.232C122.152 50.528 119.68 53.12 115.576 53.12C111.904 53.12 109.432 51.032 109.096 47.624H112.84C112.912 48.968 113.92 49.76 115.552 49.76C117.328 49.76 118.456 48.704 118.456 47V45.44C117.736 46.304 116.392 46.856 114.832 46.856C111.472 46.856 109.144 44.384 109.144 40.784ZM112.864 40.688C112.864 42.416 114.016 43.64 115.648 43.64C117.328 43.64 118.456 42.464 118.456 40.688C118.456 38.936 117.328 37.808 115.624 37.808C113.992 37.808 112.864 38.984 112.864 40.688ZM128.627 47H124.931V35H128.411L128.651 36.248C129.395 35.216 130.763 34.616 132.323 34.616C135.179 34.616 136.835 36.44 136.835 39.584V47H133.139V40.472C133.139 38.96 132.299 37.976 131.027 37.976C129.563 37.976 128.627 38.936 128.627 40.424V47Z" fill="#F6FEF9"/>
</svg>
