<svg width="32" height="32" viewBox="0 0 32 32" fill="none" xmlns="http://www.w3.org/2000/svg">
<path d="M30.9247 8.61752C30.8491 8.43478 30.7209 8.27857 30.5565 8.16866C30.3921 8.05875 30.1988 8.00006 30.001 8.00002H26.1972C25.6654 7.09524 24.9085 6.34346 24.0002 5.81777C23.0918 5.29208 22.0629 5.01037 21.0135 5.00002C20.2316 4.98976 19.4556 5.13598 18.7311 5.43008C18.0066 5.72418 17.3482 6.16021 16.7947 6.71252C16.2251 7.27154 15.7729 7.93883 15.4649 8.67512C15.1568 9.41142 14.9991 10.2019 15.001 11V11.7613C9.96848 10.4338 5.85223 6.34002 5.80848 6.29627C5.67431 6.16092 5.50427 6.06672 5.31837 6.02477C5.13247 5.98283 4.93846 5.99487 4.75917 6.05949C4.57989 6.12411 4.4228 6.23862 4.30642 6.38952C4.19003 6.54043 4.11918 6.72145 4.10223 6.91127C3.56348 12.885 5.29848 16.8825 6.85223 19.1838C7.60982 20.3214 8.53146 21.3407 9.58723 22.2088C7.68348 24.4 4.68598 25.5513 4.65348 25.5638C4.51237 25.6166 4.38503 25.7007 4.28097 25.8097C4.17691 25.9186 4.09883 26.0497 4.05255 26.1931C4.00628 26.3365 3.993 26.4885 4.01373 26.6378C4.03445 26.787 4.08863 26.9296 4.17223 27.055C4.26598 27.195 4.64098 27.6863 5.55723 28.145C6.68973 28.7125 8.18598 29 10.001 29C18.8347 29 26.216 22.1975 26.9697 13.445L30.7085 9.70752C30.8483 9.56759 30.9435 9.38934 30.9819 9.19532C31.0204 9.0013 31.0005 8.80022 30.9247 8.61752ZM25.2997 12.2938C25.1283 12.4656 25.0252 12.694 25.0097 12.9363C24.501 20.8225 17.911 27 10.001 27C8.68098 27 7.75098 26.825 7.09848 26.615C8.53723 25.8338 10.5435 24.49 11.8335 22.555C11.9092 22.4412 11.9608 22.3131 11.9851 22.1786C12.0093 22.0442 12.0058 21.9061 11.9746 21.773C11.9435 21.64 11.8854 21.5147 11.8039 21.405C11.7224 21.2952 11.6193 21.2034 11.501 21.135C11.4422 21.1013 6.01223 17.8425 6.00098 9.13502C8.00098 10.76 11.6572 13.2813 15.8347 13.9838C15.9779 14.0079 16.1246 14.0006 16.2647 13.9623C16.4047 13.924 16.5348 13.8557 16.6457 13.7621C16.7567 13.6684 16.846 13.5518 16.9073 13.4202C16.9687 13.2886 17.0006 13.1452 17.001 13V11C16.9999 10.4666 17.1054 9.9383 17.3115 9.44628C17.5176 8.95426 17.82 8.50842 18.201 8.13502C18.5662 7.76914 19.001 7.48018 19.4798 7.28524C19.9586 7.09029 20.4716 6.99331 20.9885 7.00002C22.571 7.02002 24.0497 7.98502 24.6685 9.40127C24.7465 9.57932 24.8747 9.73079 25.0374 9.83713C25.2001 9.94347 25.3903 10.0001 25.5847 10H27.5847L25.2997 12.2938Z" fill="#68B984"/>
</svg>
